<?xml version="1.0" encoding="UTF-8" standalone="no"?>
<!-- Created with Inkscape (http://www.inkscape.org/) -->

<svg
   version="1.1"
   id="svg1"
   width="380.798"
   height="380.75"
   viewBox="0 0 380.798 380.75"
   xmlns="http://www.w3.org/2000/svg"
   xmlns:svg="http://www.w3.org/2000/svg">
  <defs
     id="defs1" />
  <path
     style="display:inline;opacity:1;fill:#d24300;fill-opacity:1"
     d="m 140.959,330.498 c -18.85409,-0.88544 -51.057757,-6.44746 -59.999996,-10.36282 -5.690821,-2.49173 -9.751618,-6.81207 -9.758215,-10.3819 -0.0032,-1.75138 2.342983,-4.71891 9.609538,-12.15429 14.152916,-14.48171 14.087321,-17.92655 -0.841712,-44.20413 -31.211243,-54.93698 -36.973288,-97.074 -22.245183,-162.675857 1.974315,-8.793985 4.186608,-13.508978 7.961395,-16.967884 4.84348,-4.43817 6.385757,-3.816545 17.514177,7.059207 14.481718,14.152916 17.926556,14.087321 44.204136,-0.841712 54.93697,-31.211242 97.07399,-36.973287 162.67585,-22.245182 8.79399,1.974315 13.50898,4.186607 16.96789,7.961394 4.43817,4.843479 3.81654,6.385757 -7.05921,17.514177 -14.15291,14.481718 -14.08732,17.926557 0.84171,44.204137 31.21124,54.93697 36.97329,97.07399 22.24518,162.67585 -1.97431,8.79399 -4.1866,13.50898 -7.96139,16.96789 -4.84348,4.43817 -6.38576,3.81654 -17.51418,-7.05921 -14.48171,-14.15291 -17.92655,-14.08732 -44.20413,0.84171 C 212.6906,323.95461 180.80192,332.36913 140.959,330.498 Z m 19.84,-15.79466 c 49.51464,-3.11979 89.53357,-28.71781 110.99306,-70.99648 2.73483,-5.38806 4.38835,-9.06722 8.21009,-18.26786 4.66961,-11.24183 7.40511,-15.44903 10.59351,-16.29287 5.54522,-1.46758 12.87095,6.06786 20.49102,21.07761 3.61548,7.12166 3.36721,6.7289 3.6507,5.77526 0.35961,-1.2097 0.3408,-10.05086 -0.034,-16 -3.11983,-49.51465 -28.71785,-89.53357 -70.99652,-110.99306 -5.38806,-2.73484 -9.06722,-4.38835 -18.26786,-8.2101 -11.24183,-4.669602 -15.44903,-7.405099 -16.29287,-10.593506 -1.46758,-5.54522 6.06786,-12.87095 21.07761,-20.491015 7.12166,-3.615483 6.7289,-3.367208 5.77526,-3.650702 -1.2097,-0.35961 -10.05086,-0.340801 -16,0.03404 -49.51465,3.119791 -89.53357,28.717811 -110.99306,70.996473 -2.73484,5.38807 -4.38835,9.06723 -8.2101,18.26787 -4.669601,11.24182 -7.405098,15.44903 -10.593505,16.29286 -5.54522,1.46759 -12.87095,-6.06786 -20.491015,-21.07761 -3.615483,-7.12166 -3.367208,-6.7289 -3.650702,-5.77525 -0.35961,1.20969 -0.340801,10.05085 0.03404,16 3.119791,49.51464 28.717811,89.53357 70.996472,110.99306 5.38807,2.73483 9.06723,4.38835 18.26787,8.21009 11.24182,4.66961 15.44903,7.40511 16.29286,10.59351 1.46759,5.54522 -6.06786,12.87095 -21.07761,20.49102 -7.12166,3.61548 -6.7289,3.36721 -5.77525,3.6507 1.20969,0.35961 10.05085,0.3408 16,-0.034 z"
     id="path1" />
</svg>
