<?xml version="1.0" encoding="UTF-8" standalone="no"?>
<!-- Created with Inkscape (http://www.inkscape.org/) -->

<svg
   version="1.1"
   id="svg1"
   width="280.798"
   height="280.75006"
   viewBox="0 0 280.798 280.75006"
   xmlns="http://www.w3.org/2000/svg"
   xmlns:svg="http://www.w3.org/2000/svg">
  <defs
     id="defs1" />
  <path
     style="display:inline;opacity:1;fill:#d24300;fill-opacity:1"
     d="m 90.959004,280.498 c -18.854092,-0.88544 -51.057762,-6.44746 -60.000001,-10.36282 -5.690821,-2.49173 -9.751618,-6.81207 -9.758215,-10.3819 -0.0032,-1.75138 2.342983,-4.71891 9.609538,-12.15429 C 44.963242,233.11728 44.897647,229.67244 29.968614,203.39486 -1.2426284,148.45788 -7.0046734,106.32086 7.7234316,40.719003 9.6977466,31.925018 11.910039,27.210025 15.684826,23.751119 c 4.84348,-4.43817 6.385757,-3.816545 17.514177,7.059207 C 47.680721,44.963242 51.125559,44.897647 77.403144,29.968614 132.34011,-1.2426281 174.47713,-7.0046731 240.07899,7.7234319 c 8.79399,1.974315 13.50898,4.1866071 16.96789,7.9613941 4.43817,4.843479 3.81654,6.385757 -7.05921,17.514177 -14.15291,14.481718 -14.08732,17.926556 0.84171,44.204141 31.21124,54.936966 36.97329,97.073986 22.24518,162.675846 -1.97431,8.79399 -4.1866,13.50898 -7.96139,16.96789 -4.84348,4.43817 -6.38576,3.81654 -17.51418,-7.05921 -14.48171,-14.15291 -17.92655,-14.08732 -44.20413,0.84171 C 162.6906,273.95461 130.80192,282.36913 90.959004,280.498 Z M 110.799,264.70334 c 49.51464,-3.11979 89.53357,-28.71781 110.99306,-70.99648 2.73483,-5.38806 4.38835,-9.06722 8.21009,-18.26786 4.66961,-11.24183 7.40511,-15.44903 10.59351,-16.29287 5.54522,-1.46758 12.87095,6.06786 20.49102,21.07761 3.61548,7.12166 3.36721,6.7289 3.6507,5.77526 0.35961,-1.2097 0.3408,-10.05086 -0.034,-16 -3.11983,-49.51465 -28.71785,-89.533566 -70.99652,-110.993061 -5.38806,-2.734835 -9.06722,-4.388354 -18.26786,-8.210096 -11.24183,-4.669605 -15.44903,-7.405102 -16.29287,-10.593509 -1.46758,-5.54522 6.06786,-12.87095 21.07761,-20.491015 7.12166,-3.615483 6.7289,-3.367208 5.77526,-3.650702 -1.2097,-0.35961 -10.05086,-0.340801 -16,0.03404 -49.51465,3.119791 -89.533566,28.717811 -110.993061,70.996477 -2.734835,5.38807 -4.388354,9.06723 -8.210096,18.267866 -4.669605,11.24182 -7.405102,15.44903 -10.593509,16.29286 -5.54522,1.46759 -12.87095,-6.06786 -20.491015,-21.07761 -3.615483,-7.121656 -3.367208,-6.728896 -3.650702,-5.775246 -0.35961,1.20969 -0.340801,10.050846 0.03404,15.999996 3.119791,49.51464 28.717811,89.53357 70.996477,110.99306 5.38807,2.73483 9.06723,4.38835 18.267866,8.21009 11.24182,4.66961 15.44903,7.40511 16.29286,10.59351 1.46759,5.54522 -6.06786,12.87095 -21.07761,20.49102 -7.121656,3.61548 -6.728896,3.36721 -5.775246,3.6507 1.20969,0.35961 10.050846,0.3408 15.999996,-0.034 z"
     id="path1" />
</svg>
